<svg width="24" height="24" viewBox="0 0 24 24" fill="none" xmlns="http://www.w3.org/2000/svg">
<path d="M15.2168 1.00177C15.1047 1.01845 15.0069 1.11219 14.9863 1.13683C14.9764 1.14893 14.954 1.16103 14.9477 1.17536L4.07684 13.1198C4.02716 13.17 4 13.2369 4 13.3128C4 13.465 4.1174 13.5831 4.26886 13.5831H9.80027L7.49559 22.6139V22.6718C7.49189 22.689 7.47656 22.711 7.47656 22.7297C7.47656 22.8819 7.59396 23 7.74542 23C7.83017 23 7.90637 22.9641 7.95669 22.9036L18.9232 10.3409C18.9731 10.291 19 10.2241 19 10.148C19 9.99597 18.8826 9.87789 18.7313 9.87789H12.7963L15.4469 1.40695C15.4649 1.37021 15.466 1.33477 15.466 1.29122C15.466 1.13897 15.4579 1.07231 15.3318 1.02111C15.2939 1.00549 15.2541 0.995823 15.2168 1.00177Z" fill="#F04438"/>
</svg>
